<?xml version="1.0" encoding="UTF-8" standalone="no"?>
<!DOCTYPE svg PUBLIC "-//W3C//DTD SVG 1.1//EN"
 "http://www.w3.org/Graphics/SVG/1.1/DTD/svg11.dtd">
<!-- Generated by graphviz version 2.40.1 (0)
 -->
<!-- Title: RemoteSeal Pages: 1 -->
<svg width="1166pt" height="994pt"
 viewBox="0.00 0.00 1166.47 994.00" xmlns="http://www.w3.org/2000/svg" xmlns:xlink="http://www.w3.org/1999/xlink">
<g id="graph0" class="graph" transform="scale(1 1) rotate(0) translate(4 990)">
<title>RemoteSeal</title>
<polygon fill="#ffffff" stroke="transparent" points="-4,4 -4,-990 1162.4719,-990 1162.4719,4 -4,4"/>
<g id="clust1" class="cluster">
<title>cluster_client</title>
<polygon fill="#e8f0fe" stroke="#4285f4" points="56.4719,-8 56.4719,-978 463.4719,-978 463.4719,-8 56.4719,-8"/>
<text text-anchor="middle" x="259.9719" y="-962.8" font-family="Helvetica,sans-Serif" font-size="14.00" fill="#1a73e8">CLIENT CURIO NODE</text>
</g>
<g id="clust2" class="cluster">
<title>cluster_client_remote</title>
<polygon fill="none" stroke="#000000" stroke-dasharray="5,2" points="64.4719,-16 64.4719,-861 244.4719,-861 244.4719,-16 64.4719,-16"/>
<text text-anchor="middle" x="154.4719" y="-848.2" font-family="Helvetica,sans-Serif" font-size="11.00" fill="#000000">Remote Seal Client Tasks</text>
</g>
<g id="clust3" class="cluster">
<title>cluster_normal_pipeline</title>
<polygon fill="none" stroke="#000000" stroke-dasharray="5,2" points="252.4719,-98 252.4719,-443 455.4719,-443 455.4719,-98 252.4719,-98"/>
<text text-anchor="middle" x="353.9719" y="-430.2" font-family="Helvetica,sans-Serif" font-size="11.00" fill="#000000">Normal Seal Pipeline (client&#45;side)</text>
</g>
<g id="clust4" class="cluster">
<title>cluster_provider</title>
<polygon fill="#fce4ec" stroke="#c62828" points="471.4719,-169 471.4719,-978 779.4719,-978 779.4719,-169 471.4719,-169"/>
<text text-anchor="middle" x="625.4719" y="-962.8" font-family="Helvetica,sans-Serif" font-size="14.00" fill="#c62828">PROVIDER CURIO NODE</text>
</g>
<g id="clust5" class="cluster">
<title>cluster_prov_compute</title>
<polygon fill="none" stroke="#000000" stroke-dasharray="5,2" points="479.4719,-601 479.4719,-865 771.4719,-865 771.4719,-601 479.4719,-601"/>
<text text-anchor="middle" x="625.4719" y="-852.2" font-family="Helvetica,sans-Serif" font-size="11.00" fill="#000000">Computation (existing seal tasks via UNION ALL)</text>
</g>
<g id="clust6" class="cluster">
<title>cluster_prov_lifecycle</title>
<polygon fill="none" stroke="#000000" stroke-dasharray="5,2" points="486.4719,-177 486.4719,-553 635.4719,-553 635.4719,-177 486.4719,-177"/>
<text text-anchor="middle" x="560.9719" y="-540.2" font-family="Helvetica,sans-Serif" font-size="11.00" fill="#000000">Provider Lifecycle Tasks</text>
</g>
<g id="clust8" class="cluster">
<title>cluster_legend</title>
<polygon fill="#ffffff" stroke="#000000" points="965.4719,-481 965.4719,-975 1150.4719,-975 1150.4719,-481 965.4719,-481"/>
<text text-anchor="middle" x="1057.9719" y="-962.2" font-family="Helvetica,sans-Serif" font-size="11.00" fill="#000000">Legend</text>
</g>
<!-- sector_created -->
<g id="node1" class="node">
<title>sector_created</title>
<path fill="#fff3e0" stroke="#e65100" d="M193.9719,-947C193.9719,-947 76.9719,-947 76.9719,-947 70.9719,-947 64.9719,-941 64.9719,-935 64.9719,-935 64.9719,-923 64.9719,-923 64.9719,-917 70.9719,-911 76.9719,-911 76.9719,-911 193.9719,-911 193.9719,-911 199.9719,-911 205.9719,-917 205.9719,-923 205.9719,-923 205.9719,-935 205.9719,-935 205.9719,-941 199.9719,-947 193.9719,-947"/>
<text text-anchor="middle" x="135.4719" y="-932.2" font-family="Helvetica,sans-Serif" font-size="11.00" fill="#000000">Sector Created</text>
<text text-anchor="middle" x="135.4719" y="-920.2" font-family="Helvetica,sans-Serif" font-size="11.00" fill="#000000">(sectors_sdr_pipeline)</text>
</g>
<!-- delegate -->
<g id="node2" class="node">
<title>delegate</title>
<path fill="#c8e6c9" stroke="#2e7d32" d="M170.9719,-833C170.9719,-833 89.9719,-833 89.9719,-833 83.9719,-833 77.9719,-827 77.9719,-821 77.9719,-821 77.9719,-809 77.9719,-809 77.9719,-803 83.9719,-797 89.9719,-797 89.9719,-797 170.9719,-797 170.9719,-797 176.9719,-797 182.9719,-803 182.9719,-809 182.9719,-809 182.9719,-821 182.9719,-821 182.9719,-827 176.9719,-833 170.9719,-833"/>
<text text-anchor="middle" x="130.4719" y="-818.2" font-family="Helvetica,sans-Serif" font-size="11.00" fill="#000000">RSealDelegate</text>
<text text-anchor="middle" x="130.4719" y="-806.2" font-family="Helvetica,sans-Serif" font-size="11.00" fill="#000000">(IAmBored 15s)</text>
</g>
<!-- sector_created&#45;&gt;delegate -->
<g id="edge1" class="edge">
<title>sector_created&#45;&gt;delegate</title>
<path fill="none" stroke="#000000" d="M134.6797,-910.9364C133.8835,-892.7827 132.6446,-864.536 131.7169,-843.3859"/>
<polygon fill="#000000" stroke="#000000" points="135.212,-843.1936 131.277,-833.3566 128.2187,-843.5004 135.212,-843.1936"/>
<text text-anchor="middle" x="175.9719" y="-885.8" font-family="Helvetica,sans-Serif" font-size="9.00" fill="#000000">poller detects</text>
<text text-anchor="middle" x="175.9719" y="-875.8" font-family="Helvetica,sans-Serif" font-size="9.00" fill="#000000">unassigned sector</text>
</g>
<!-- client_poll -->
<g id="node3" class="node">
<title>client_poll</title>
<path fill="#c8e6c9" stroke="#2e7d32" d="M190.4719,-737C190.4719,-737 84.4719,-737 84.4719,-737 78.4719,-737 72.4719,-731 72.4719,-725 72.4719,-725 72.4719,-713 72.4719,-713 72.4719,-707 78.4719,-701 84.4719,-701 84.4719,-701 190.4719,-701 190.4719,-701 196.4719,-701 202.4719,-707 202.4719,-713 202.4719,-713 202.4719,-725 202.4719,-725 202.4719,-731 196.4719,-737 190.4719,-737"/>
<text text-anchor="middle" x="137.4719" y="-722.2" font-family="Helvetica,sans-Serif" font-size="11.00" fill="#000000">RSealClientPoll</text>
<text text-anchor="middle" x="137.4719" y="-710.2" font-family="Helvetica,sans-Serif" font-size="11.00" fill="#000000">(loop 30s, CanYield)</text>
</g>
<!-- delegate&#45;&gt;client_poll -->
<g id="edge2" class="edge">
<title>delegate&#45;&gt;client_poll</title>
<path fill="none" stroke="#000000" d="M131.7886,-796.9431C132.799,-783.0862 134.2136,-763.6861 135.3787,-747.7075"/>
<polygon fill="#000000" stroke="#000000" points="138.9008,-747.5304 136.1374,-737.3023 131.9193,-747.0213 138.9008,-747.5304"/>
<text text-anchor="middle" x="203.4719" y="-767.8" font-family="Helvetica,sans-Serif" font-size="9.00" fill="#000000">order accepted</text>
<text text-anchor="middle" x="203.4719" y="-757.8" font-family="Helvetica,sans-Serif" font-size="9.00" fill="#000000">(rseal_client_pipeline created)</text>
</g>
<!-- order_recv -->
<g id="node11" class="node">
<title>order_recv</title>
<path fill="#fff3e0" stroke="#e65100" d="M635.9719,-947C635.9719,-947 502.9719,-947 502.9719,-947 496.9719,-947 490.9719,-941 490.9719,-935 490.9719,-935 490.9719,-923 490.9719,-923 490.9719,-917 496.9719,-911 502.9719,-911 502.9719,-911 635.9719,-911 635.9719,-911 641.9719,-911 647.9719,-917 647.9719,-923 647.9719,-923 647.9719,-935 647.9719,-935 647.9719,-941 641.9719,-947 635.9719,-947"/>
<text text-anchor="middle" x="569.4719" y="-932.2" font-family="Helvetica,sans-Serif" font-size="11.00" fill="#000000">Order Received</text>
<text text-anchor="middle" x="569.4719" y="-920.2" font-family="Helvetica,sans-Serif" font-size="11.00" fill="#000000">(rseal_provider_pipeline)</text>
</g>
<!-- delegate&#45;&gt;order_recv -->
<g id="edge18" class="edge">
<title>delegate&#45;&gt;order_recv</title>
<path fill="none" stroke="#e65100" stroke-width="2" d="M183.1829,-824.2081C250.6935,-835.6397 371.4134,-854.8642 475.4719,-865 484.2748,-865.8574 628.3771,-866.5908 634.4719,-873 645.3843,-884.4752 636.0233,-896.0773 621.3454,-905.7218"/>
<polygon fill="#e65100" stroke="#e65100" stroke-width="2" points="619.5274,-902.7309 612.739,-910.8653 623.1184,-908.7396 619.5274,-902.7309"/>
<text text-anchor="middle" x="672.9719" y="-885.8" font-family="Helvetica,sans-Serif" font-size="9.00" fill="#e65100">POST /available</text>
<text text-anchor="middle" x="672.9719" y="-875.8" font-family="Helvetica,sans-Serif" font-size="9.00" fill="#e65100">POST /order</text>
</g>
<!-- client_fetch -->
<g id="node4" class="node">
<title>client_fetch</title>
<path fill="#c8e6c9" stroke="#2e7d32" d="M224.4719,-525C224.4719,-525 84.4719,-525 84.4719,-525 78.4719,-525 72.4719,-519 72.4719,-513 72.4719,-513 72.4719,-501 72.4719,-501 72.4719,-495 78.4719,-489 84.4719,-489 84.4719,-489 224.4719,-489 224.4719,-489 230.4719,-489 236.4719,-495 236.4719,-501 236.4719,-501 236.4719,-513 236.4719,-513 236.4719,-519 230.4719,-525 224.4719,-525"/>
<text text-anchor="middle" x="154.4719" y="-510.2" font-family="Helvetica,sans-Serif" font-size="11.00" fill="#000000">RSealClientFetch</text>
<text text-anchor="middle" x="154.4719" y="-498.2" font-family="Helvetica,sans-Serif" font-size="11.00" fill="#000000">(download sealed+cache)</text>
</g>
<!-- client_poll&#45;&gt;client_fetch -->
<g id="edge4" class="edge">
<title>client_poll&#45;&gt;client_fetch</title>
<path fill="none" stroke="#000000" d="M72.4029,-702.3131C48.3331,-692.6438 23.5135,-677.7197 9.4719,-655 -3.6129,-633.8282 -2.5194,-620.8097 9.4719,-599 27.2405,-566.6829 61.694,-544.1163 92.5588,-529.423"/>
<polygon fill="#000000" stroke="#000000" points="94.356,-532.45 101.9998,-525.1137 91.4493,-526.082 94.356,-532.45"/>
<text text-anchor="middle" x="68.4719" y="-629.8" font-family="Helvetica,sans-Serif" font-size="9.00" fill="#000000">completion applied</text>
<text text-anchor="middle" x="68.4719" y="-619.8" font-family="Helvetica,sans-Serif" font-size="9.00" fill="#000000">(ApplyRemoteCompletion)</text>
</g>
<!-- complete_recv -->
<g id="node10" class="node">
<title>complete_recv</title>
<polygon fill="#fff9c4" stroke="#f9a825" points="315.4719,-655 253.4719,-627 315.4719,-599 377.4719,-627 315.4719,-655"/>
<text text-anchor="middle" x="315.4719" y="-629.8" font-family="Helvetica,sans-Serif" font-size="9.00" fill="#000000">/complete</text>
<text text-anchor="middle" x="315.4719" y="-619.8" font-family="Helvetica,sans-Serif" font-size="9.00" fill="#000000">callback</text>
</g>
<!-- client_poll&#45;&gt;complete_recv -->
<!-- client_poll&#45;&gt;order_recv -->
<g id="edge19" class="edge">
<title>client_poll&#45;&gt;order_recv</title>
<path fill="none" stroke="#e65100" stroke-dasharray="5,2" d="M202.6068,-722.531C364.8711,-731.346 774.25,-753.7072 775.4719,-755 809.0537,-790.5301 802.2312,-824.0847 775.4719,-865 761.9238,-885.7152 707.4423,-902.1015 657.9122,-913.1063"/>
<polygon fill="#e65100" stroke="#e65100" points="657.1179,-909.6971 648.0858,-915.2351 658.6002,-916.5383 657.1179,-909.6971"/>
<text text-anchor="middle" x="826.4719" y="-817.8" font-family="Helvetica,sans-Serif" font-size="9.00" fill="#e65100">POST /status</text>
<text text-anchor="middle" x="826.4719" y="-807.8" font-family="Helvetica,sans-Serif" font-size="9.00" fill="#e65100">(polls state)</text>
</g>
<!-- precommit -->
<g id="node6" class="node">
<title>precommit</title>
<path fill="#bbdefb" stroke="#1565c0" d="M372.9719,-415C372.9719,-415 277.9719,-415 277.9719,-415 271.9719,-415 265.9719,-409 265.9719,-403 265.9719,-403 265.9719,-391 265.9719,-391 265.9719,-385 271.9719,-379 277.9719,-379 277.9719,-379 372.9719,-379 372.9719,-379 378.9719,-379 384.9719,-385 384.9719,-391 384.9719,-391 384.9719,-403 384.9719,-403 384.9719,-409 378.9719,-415 372.9719,-415"/>
<text text-anchor="middle" x="325.4719" y="-400.2" font-family="Helvetica,sans-Serif" font-size="11.00" fill="#000000">PrecommitSubmit</text>
<text text-anchor="middle" x="325.4719" y="-388.2" font-family="Helvetica,sans-Serif" font-size="11.00" fill="#000000">(on&#45;chain msg)</text>
</g>
<!-- client_fetch&#45;&gt;precommit -->
<g id="edge6" class="edge">
<title>client_fetch&#45;&gt;precommit</title>
<path fill="none" stroke="#000000" d="M187.1028,-488.7499C208.7904,-476.3567 237.7241,-459.3138 262.4719,-443 272.7914,-436.1974 283.7601,-428.3986 293.6034,-421.1787"/>
<polygon fill="#000000" stroke="#000000" points="295.9646,-423.7854 301.9194,-415.0224 291.7996,-418.1593 295.9646,-423.7854"/>
<text text-anchor="middle" x="287.9719" y="-463.8" font-family="Helvetica,sans-Serif" font-size="9.00" fill="#000000">after_fetch=TRUE</text>
<text text-anchor="middle" x="287.9719" y="-453.8" font-family="Helvetica,sans-Serif" font-size="9.00" fill="#000000">(c1.url written)</text>
</g>
<!-- client_fetch&#45;&gt;order_recv -->
<g id="edge21" class="edge">
<title>client_fetch&#45;&gt;order_recv</title>
<path fill="none" stroke="#e65100" stroke-width="2" d="M236.5264,-519.9069C302.7696,-529.9887 398.4478,-543.7889 482.4719,-553 527.2333,-557.907 538.8657,-554.8406 583.4719,-561 605.0147,-563.9747 759.2487,-584.5175 775.4719,-599 823.4957,-641.8709 790.6362,-679.444 819.4719,-737 833.1724,-764.346 850.1378,-763.873 859.4719,-793 869.2376,-823.4735 878.7074,-839.4266 859.4719,-865 835.4839,-896.8919 734.469,-913.6159 658.3526,-921.8545"/>
<polygon fill="#e65100" stroke="#e65100" stroke-width="2" points="657.8401,-918.389 648.26,-922.9135 658.5707,-925.3508 657.8401,-918.389"/>
<text text-anchor="middle" x="876.4719" y="-721.8" font-family="Helvetica,sans-Serif" font-size="9.00" fill="#e65100">GET /sealed&#45;data (32GiB)</text>
<text text-anchor="middle" x="876.4719" y="-711.8" font-family="Helvetica,sans-Serif" font-size="9.00" fill="#e65100">GET /cache&#45;data (tar)</text>
</g>
<!-- client_cleanup -->
<g id="node5" class="node">
<title>client_cleanup</title>
<path fill="#c8e6c9" stroke="#2e7d32" d="M223.9719,-60C223.9719,-60 120.9719,-60 120.9719,-60 114.9719,-60 108.9719,-54 108.9719,-48 108.9719,-48 108.9719,-36 108.9719,-36 108.9719,-30 114.9719,-24 120.9719,-24 120.9719,-24 223.9719,-24 223.9719,-24 229.9719,-24 235.9719,-30 235.9719,-36 235.9719,-36 235.9719,-48 235.9719,-48 235.9719,-54 229.9719,-60 223.9719,-60"/>
<text text-anchor="middle" x="172.4719" y="-45.2" font-family="Helvetica,sans-Serif" font-size="11.00" fill="#000000">RSealClientCleanup</text>
<text text-anchor="middle" x="172.4719" y="-33.2" font-family="Helvetica,sans-Serif" font-size="11.00" fill="#000000">(finalize+cleanup)</text>
</g>
<!-- client_cleanup&#45;&gt;order_recv -->
<g id="edge23" class="edge">
<title>client_cleanup&#45;&gt;order_recv</title>
<path fill="none" stroke="#e65100" stroke-width="2" d="M236.2684,-48.1837C283.7331,-53.6571 349.8201,-63.1268 406.4719,-78 514.0012,-106.2304 555.9514,-95.6254 639.4719,-169 842.4241,-347.298 866.0003,-439.4138 933.4719,-701 956.9166,-791.8945 931.3104,-855.0104 845.4719,-893 812.8456,-907.4395 726.0237,-917.1991 658.386,-922.8734"/>
<polygon fill="#e65100" stroke="#e65100" stroke-width="2" points="657.8112,-919.4087 648.1311,-923.715 658.3839,-926.3852 657.8112,-919.4087"/>
<text text-anchor="middle" x="898.4719" y="-463.8" font-family="Helvetica,sans-Serif" font-size="9.00" fill="#e65100">POST /finalize</text>
<text text-anchor="middle" x="898.4719" y="-453.8" font-family="Helvetica,sans-Serif" font-size="9.00" fill="#e65100">POST /cleanup</text>
</g>
<!-- porep -->
<g id="node7" class="node">
<title>porep</title>
<path fill="#bbdefb" stroke="#1565c0" d="M390.4719,-313C390.4719,-313 272.4719,-313 272.4719,-313 266.4719,-313 260.4719,-307 260.4719,-301 260.4719,-301 260.4719,-289 260.4719,-289 260.4719,-283 266.4719,-277 272.4719,-277 272.4719,-277 390.4719,-277 390.4719,-277 396.4719,-277 402.4719,-283 402.4719,-289 402.4719,-289 402.4719,-301 402.4719,-301 402.4719,-307 396.4719,-313 390.4719,-313"/>
<text text-anchor="middle" x="331.4719" y="-298.2" font-family="Helvetica,sans-Serif" font-size="11.00" fill="#000000">PoRepSnark</text>
<text text-anchor="middle" x="331.4719" y="-286.2" font-family="Helvetica,sans-Serif" font-size="11.00" fill="#000000">(fetches C1 via c1.url)</text>
</g>
<!-- precommit&#45;&gt;porep -->
<g id="edge7" class="edge">
<title>precommit&#45;&gt;porep</title>
<path fill="none" stroke="#000000" d="M326.5446,-378.7644C327.4533,-363.317 328.7711,-340.9149 329.8152,-323.164"/>
<polygon fill="#000000" stroke="#000000" points="333.3152,-323.266 330.4085,-313.0777 326.3273,-322.8549 333.3152,-323.266"/>
<text text-anchor="middle" x="374.4719" y="-343.8" font-family="Helvetica,sans-Serif" font-size="9.00" fill="#000000">precommit on&#45;chain</text>
<text text-anchor="middle" x="374.4719" y="-333.8" font-family="Helvetica,sans-Serif" font-size="9.00" fill="#000000">+ seed epoch</text>
</g>
<!-- finalize_local -->
<g id="node8" class="node">
<title>finalize_local</title>
<path fill="#bbdefb" stroke="#1565c0" d="M361.4719,-221C361.4719,-221 281.4719,-221 281.4719,-221 275.4719,-221 269.4719,-215 269.4719,-209 269.4719,-209 269.4719,-197 269.4719,-197 269.4719,-191 275.4719,-185 281.4719,-185 281.4719,-185 361.4719,-185 361.4719,-185 367.4719,-185 373.4719,-191 373.4719,-197 373.4719,-197 373.4719,-209 373.4719,-209 373.4719,-215 367.4719,-221 361.4719,-221"/>
<text text-anchor="middle" x="321.4719" y="-206.2" font-family="Helvetica,sans-Serif" font-size="11.00" fill="#000000">Finalize</text>
<text text-anchor="middle" x="321.4719" y="-194.2" font-family="Helvetica,sans-Serif" font-size="11.00" fill="#000000">(move storage)</text>
</g>
<!-- porep&#45;&gt;finalize_local -->
<g id="edge8" class="edge">
<title>porep&#45;&gt;finalize_local</title>
<path fill="none" stroke="#000000" d="M329.4963,-276.8238C328.0855,-263.8451 326.1603,-246.1329 324.5492,-231.3112"/>
<polygon fill="#000000" stroke="#000000" points="328.0037,-230.7017 323.4435,-221.1385 321.0447,-231.4582 328.0037,-230.7017"/>
</g>
<!-- c1_handler -->
<g id="node18" class="node">
<title>c1_handler</title>
<polygon fill="#fff9c4" stroke="#f9a825" points="703.4719,-425 643.4719,-397 703.4719,-369 763.4719,-397 703.4719,-425"/>
<text text-anchor="middle" x="703.4719" y="-399.8" font-family="Helvetica,sans-Serif" font-size="9.00" fill="#000000">/commit1</text>
<text text-anchor="middle" x="703.4719" y="-389.8" font-family="Helvetica,sans-Serif" font-size="9.00" fill="#000000">handler</text>
</g>
<!-- porep&#45;&gt;c1_handler -->
<g id="edge22" class="edge">
<title>porep&#45;&gt;c1_handler</title>
<path fill="none" stroke="#e65100" stroke-width="2" d="M402.685,-305.0651C423.5402,-307.8394 446.3986,-310.7121 467.4719,-313 514.4763,-318.1032 641.9291,-302.26 679.4719,-331 688.7372,-338.0928 694.4292,-349.1064 697.9247,-360.118"/>
<polygon fill="#e65100" stroke="#e65100" stroke-width="2" points="694.6265,-361.338 700.5568,-370.1176 701.3959,-359.5561 694.6265,-361.338"/>
<text text-anchor="middle" x="749.4719" y="-343.8" font-family="Helvetica,sans-Serif" font-size="9.00" fill="#e65100">POST /commit1</text>
<text text-anchor="middle" x="749.4719" y="-333.8" font-family="Helvetica,sans-Serif" font-size="9.00" fill="#e65100">(raw bytes ~50&#45;128MiB)</text>
</g>
<!-- commit -->
<g id="node9" class="node">
<title>commit</title>
<path fill="#bbdefb" stroke="#1565c0" d="M355.9719,-142C355.9719,-142 276.9719,-142 276.9719,-142 270.9719,-142 264.9719,-136 264.9719,-130 264.9719,-130 264.9719,-118 264.9719,-118 264.9719,-112 270.9719,-106 276.9719,-106 276.9719,-106 355.9719,-106 355.9719,-106 361.9719,-106 367.9719,-112 367.9719,-118 367.9719,-118 367.9719,-130 367.9719,-130 367.9719,-136 361.9719,-142 355.9719,-142"/>
<text text-anchor="middle" x="316.4719" y="-127.2" font-family="Helvetica,sans-Serif" font-size="11.00" fill="#000000">CommitSubmit</text>
<text text-anchor="middle" x="316.4719" y="-115.2" font-family="Helvetica,sans-Serif" font-size="11.00" fill="#000000">(on&#45;chain msg)</text>
</g>
<!-- finalize_local&#45;&gt;commit -->
<g id="edge9" class="edge">
<title>finalize_local&#45;&gt;commit</title>
<path fill="none" stroke="#000000" d="M320.3123,-184.6772C319.7064,-175.1053 318.9515,-163.1777 318.2717,-152.4371"/>
<polygon fill="#000000" stroke="#000000" points="321.7501,-151.9823 317.6253,-142.2234 314.764,-152.4245 321.7501,-151.9823"/>
</g>
<!-- commit&#45;&gt;client_cleanup -->
<g id="edge10" class="edge">
<title>commit&#45;&gt;client_cleanup</title>
<path fill="none" stroke="#000000" d="M284.5137,-105.8015C263.4469,-93.8052 235.6741,-77.9901 213.0504,-65.1072"/>
<polygon fill="#000000" stroke="#000000" points="214.7627,-62.0546 204.3409,-60.1476 211.2988,-68.1375 214.7627,-62.0546"/>
<text text-anchor="middle" x="290.9719" y="-80.8" font-family="Helvetica,sans-Serif" font-size="9.00" fill="#000000">after PoRep done</text>
</g>
<!-- complete_recv&#45;&gt;client_fetch -->
<g id="edge5" class="edge">
<title>complete_recv&#45;&gt;client_fetch</title>
<path fill="none" stroke="#000000" d="M284.5241,-612.7815C273.3213,-607.9789 260.4727,-602.8617 248.4719,-599 214.6044,-588.1018 195.4543,-606.331 170.4719,-581 158.6984,-569.0621 154.6854,-550.6476 153.6223,-535.175"/>
<polygon fill="#000000" stroke="#000000" points="157.1164,-534.9319 153.2985,-525.0489 150.12,-535.1557 157.1164,-534.9319"/>
<text text-anchor="middle" x="229.4719" y="-573.8" font-family="Helvetica,sans-Serif" font-size="9.00" fill="#000000">completion applied</text>
<text text-anchor="middle" x="229.4719" y="-563.8" font-family="Helvetica,sans-Serif" font-size="9.00" fill="#000000">(ApplyRemoteCompletion)</text>
</g>
<!-- prov_sdr -->
<g id="node12" class="node">
<title>prov_sdr</title>
<path fill="#f8bbd0" stroke="#880e4f" d="M613.4719,-837C613.4719,-837 525.4719,-837 525.4719,-837 519.4719,-837 513.4719,-831 513.4719,-825 513.4719,-825 513.4719,-805 513.4719,-805 513.4719,-799 519.4719,-793 525.4719,-793 525.4719,-793 613.4719,-793 613.4719,-793 619.4719,-793 625.4719,-799 625.4719,-805 625.4719,-805 625.4719,-825 625.4719,-825 625.4719,-831 619.4719,-837 613.4719,-837"/>
<text text-anchor="middle" x="569.4719" y="-824.2" font-family="Helvetica,sans-Serif" font-size="11.00" fill="#000000">SDR</text>
<text text-anchor="middle" x="569.4719" y="-812.2" font-family="Helvetica,sans-Serif" font-size="11.00" fill="#000000">(computes ticket</text>
<text text-anchor="middle" x="569.4719" y="-800.2" font-family="Helvetica,sans-Serif" font-size="11.00" fill="#000000">from chain)</text>
</g>
<!-- order_recv&#45;&gt;prov_sdr -->
<g id="edge11" class="edge">
<title>order_recv&#45;&gt;prov_sdr</title>
<path fill="none" stroke="#000000" d="M569.4719,-910.9364C569.4719,-893.9349 569.4719,-868.0808 569.4719,-847.4943"/>
<polygon fill="#000000" stroke="#000000" points="572.972,-847.2838 569.4719,-837.2838 565.972,-847.2839 572.972,-847.2838"/>
<text text-anchor="middle" x="599.9719" y="-885.8" font-family="Helvetica,sans-Serif" font-size="9.00" fill="#000000">poller assigns</text>
<text text-anchor="middle" x="599.9719" y="-875.8" font-family="Helvetica,sans-Serif" font-size="9.00" fill="#000000">task_id_sdr</text>
</g>
<!-- prov_treed -->
<g id="node13" class="node">
<title>prov_treed</title>
<path fill="#f8bbd0" stroke="#880e4f" d="M584.4719,-737C584.4719,-737 554.4719,-737 554.4719,-737 548.4719,-737 542.4719,-731 542.4719,-725 542.4719,-725 542.4719,-713 542.4719,-713 542.4719,-707 548.4719,-701 554.4719,-701 554.4719,-701 584.4719,-701 584.4719,-701 590.4719,-701 596.4719,-707 596.4719,-713 596.4719,-713 596.4719,-725 596.4719,-725 596.4719,-731 590.4719,-737 584.4719,-737"/>
<text text-anchor="middle" x="569.4719" y="-716.2" font-family="Helvetica,sans-Serif" font-size="11.00" fill="#000000">TreeD</text>
</g>
<!-- prov_sdr&#45;&gt;prov_treed -->
<g id="edge12" class="edge">
<title>prov_sdr&#45;&gt;prov_treed</title>
<path fill="none" stroke="#000000" d="M569.4719,-792.7344C569.4719,-779.3163 569.4719,-762.089 569.4719,-747.6609"/>
<polygon fill="#000000" stroke="#000000" points="572.972,-747.2828 569.4719,-737.2828 565.972,-747.2829 572.972,-747.2828"/>
<text text-anchor="middle" x="605.4719" y="-762.8" font-family="Helvetica,sans-Serif" font-size="9.00" fill="#000000">after_sdr=TRUE</text>
</g>
<!-- prov_treerc -->
<g id="node14" class="node">
<title>prov_treerc</title>
<path fill="#f8bbd0" stroke="#880e4f" d="M609.4719,-645C609.4719,-645 529.4719,-645 529.4719,-645 523.4719,-645 517.4719,-639 517.4719,-633 517.4719,-633 517.4719,-621 517.4719,-621 517.4719,-615 523.4719,-609 529.4719,-609 529.4719,-609 609.4719,-609 609.4719,-609 615.4719,-609 621.4719,-615 621.4719,-621 621.4719,-621 621.4719,-633 621.4719,-633 621.4719,-639 615.4719,-645 609.4719,-645"/>
<text text-anchor="middle" x="569.4719" y="-630.2" font-family="Helvetica,sans-Serif" font-size="11.00" fill="#000000">TreeRC</text>
<text text-anchor="middle" x="569.4719" y="-618.2" font-family="Helvetica,sans-Serif" font-size="11.00" fill="#000000">(TreeC + TreeR)</text>
</g>
<!-- prov_treed&#45;&gt;prov_treerc -->
<g id="edge13" class="edge">
<title>prov_treed&#45;&gt;prov_treerc</title>
<path fill="none" stroke="#000000" d="M569.4719,-700.8238C569.4719,-687.8451 569.4719,-670.1329 569.4719,-655.3112"/>
<polygon fill="#000000" stroke="#000000" points="572.972,-655.1384 569.4719,-645.1385 565.972,-655.1385 572.972,-655.1384"/>
<text text-anchor="middle" x="612.4719" y="-675.8" font-family="Helvetica,sans-Serif" font-size="9.00" fill="#000000">after_tree_d=TRUE</text>
</g>
<!-- prov_notify -->
<g id="node15" class="node">
<title>prov_notify</title>
<path fill="#e1bee7" stroke="#6a1b9a" d="M615.4719,-525C615.4719,-525 523.4719,-525 523.4719,-525 517.4719,-525 511.4719,-519 511.4719,-513 511.4719,-513 511.4719,-501 511.4719,-501 511.4719,-495 517.4719,-489 523.4719,-489 523.4719,-489 615.4719,-489 615.4719,-489 621.4719,-489 627.4719,-495 627.4719,-501 627.4719,-501 627.4719,-513 627.4719,-513 627.4719,-519 621.4719,-525 615.4719,-525"/>
<text text-anchor="middle" x="569.4719" y="-510.2" font-family="Helvetica,sans-Serif" font-size="11.00" fill="#000000">RSealProvNotify</text>
<text text-anchor="middle" x="569.4719" y="-498.2" font-family="Helvetica,sans-Serif" font-size="11.00" fill="#000000">(POST /complete)</text>
</g>
<!-- prov_treerc&#45;&gt;prov_notify -->
<g id="edge14" class="edge">
<title>prov_treerc&#45;&gt;prov_notify</title>
<path fill="none" stroke="#000000" d="M524.4354,-608.8366C512.9497,-601.9126 502.0127,-592.7675 495.4719,-581 484.6589,-561.5465 501.1386,-543.7663 521.267,-530.5124"/>
<polygon fill="#000000" stroke="#000000" points="523.3596,-533.3346 530.0479,-525.1176 519.6953,-527.3703 523.3596,-533.3346"/>
<text text-anchor="middle" x="537.4719" y="-568.8" font-family="Helvetica,sans-Serif" font-size="9.00" fill="#000000">after_tree_r=TRUE</text>
</g>
<!-- prov_notify&#45;&gt;complete_recv -->
<g id="edge20" class="edge">
<title>prov_notify&#45;&gt;complete_recv</title>
<path fill="none" stroke="#c62828" stroke-width="2" d="M511.4192,-523.6238C481.9713,-532.981 446.0586,-545.8339 415.4719,-561 391.3918,-572.9399 366.1443,-589.6406 347.0424,-603.2546"/>
<polygon fill="#c62828" stroke="#c62828" stroke-width="2" points="344.7805,-600.5708 338.7245,-609.2642 348.88,-606.2448 344.7805,-600.5708"/>
<text text-anchor="middle" x="451.4719" y="-573.8" font-family="Helvetica,sans-Serif" font-size="9.00" fill="#c62828">POST /complete</text>
<text text-anchor="middle" x="451.4719" y="-563.8" font-family="Helvetica,sans-Serif" font-size="9.00" fill="#c62828">(ticket+CIDs)</text>
</g>
<!-- prov_notify&#45;&gt;c1_handler -->
<g id="edge15" class="edge">
<title>prov_notify&#45;&gt;c1_handler</title>
<path fill="none" stroke="#000000" stroke-dasharray="5,2" d="M591.5993,-488.8357C613.9058,-470.5245 648.4935,-442.1316 673.3043,-421.7645"/>
<polygon fill="#000000" stroke="#000000" points="675.8031,-424.2415 681.3117,-415.1912 671.3616,-418.831 675.8031,-424.2415"/>
<text text-anchor="middle" x="667.9719" y="-463.8" font-family="Helvetica,sans-Serif" font-size="9.00" fill="#000000">waits for</text>
<text text-anchor="middle" x="667.9719" y="-453.8" font-family="Helvetica,sans-Serif" font-size="9.00" fill="#000000">client request</text>
</g>
<!-- prov_finalize -->
<g id="node16" class="node">
<title>prov_finalize</title>
<path fill="#e1bee7" stroke="#6a1b9a" d="M601.9719,-313C601.9719,-313 510.9719,-313 510.9719,-313 504.9719,-313 498.9719,-307 498.9719,-301 498.9719,-301 498.9719,-289 498.9719,-289 498.9719,-283 504.9719,-277 510.9719,-277 510.9719,-277 601.9719,-277 601.9719,-277 607.9719,-277 613.9719,-283 613.9719,-289 613.9719,-289 613.9719,-301 613.9719,-301 613.9719,-307 607.9719,-313 601.9719,-313"/>
<text text-anchor="middle" x="556.4719" y="-298.2" font-family="Helvetica,sans-Serif" font-size="11.00" fill="#000000">RSealProvFinalize</text>
<text text-anchor="middle" x="556.4719" y="-286.2" font-family="Helvetica,sans-Serif" font-size="11.00" fill="#000000">(drop layers)</text>
</g>
<!-- prov_cleanup -->
<g id="node17" class="node">
<title>prov_cleanup</title>
<path fill="#e1bee7" stroke="#6a1b9a" d="M601.9719,-221C601.9719,-221 506.9719,-221 506.9719,-221 500.9719,-221 494.9719,-215 494.9719,-209 494.9719,-209 494.9719,-197 494.9719,-197 494.9719,-191 500.9719,-185 506.9719,-185 506.9719,-185 601.9719,-185 601.9719,-185 607.9719,-185 613.9719,-191 613.9719,-197 613.9719,-197 613.9719,-209 613.9719,-209 613.9719,-215 607.9719,-221 601.9719,-221"/>
<text text-anchor="middle" x="554.4719" y="-206.2" font-family="Helvetica,sans-Serif" font-size="11.00" fill="#000000">RSealProvCleanup</text>
<text text-anchor="middle" x="554.4719" y="-194.2" font-family="Helvetica,sans-Serif" font-size="11.00" fill="#000000">(remove all data)</text>
</g>
<!-- prov_finalize&#45;&gt;prov_cleanup -->
<g id="edge17" class="edge">
<title>prov_finalize&#45;&gt;prov_cleanup</title>
<path fill="none" stroke="#000000" d="M556.0768,-276.8238C555.7947,-263.8451 555.4096,-246.1329 555.0874,-231.3112"/>
<polygon fill="#000000" stroke="#000000" points="558.5829,-231.06 554.8662,-221.1385 551.5845,-231.2122 558.5829,-231.06"/>
<text text-anchor="middle" x="598.9719" y="-251.8" font-family="Helvetica,sans-Serif" font-size="9.00" fill="#000000">cleanup_requested</text>
<text text-anchor="middle" x="598.9719" y="-241.8" font-family="Helvetica,sans-Serif" font-size="9.00" fill="#000000">or 72h timeout</text>
</g>
<!-- c1_handler&#45;&gt;prov_finalize -->
<g id="edge16" class="edge">
<title>c1_handler&#45;&gt;prov_finalize</title>
<path fill="none" stroke="#000000" d="M679.1979,-380.1568C655.1361,-363.4608 618.0478,-337.7261 590.9389,-318.9159"/>
<polygon fill="#000000" stroke="#000000" points="592.7283,-315.8975 582.5171,-313.0722 588.7377,-321.6486 592.7283,-315.8975"/>
<text text-anchor="middle" x="689.4719" y="-338.8" font-family="Helvetica,sans-Serif" font-size="9.00" fill="#000000">after_c1_supplied=TRUE</text>
</g>
<!-- leg_green -->
<g id="node19" class="node">
<title>leg_green</title>
<path fill="#c8e6c9" stroke="#2e7d32" d="M1129.9719,-947C1129.9719,-947 1076.9719,-947 1076.9719,-947 1070.9719,-947 1064.9719,-941 1064.9719,-935 1064.9719,-935 1064.9719,-923 1064.9719,-923 1064.9719,-917 1070.9719,-911 1076.9719,-911 1076.9719,-911 1129.9719,-911 1129.9719,-911 1135.9719,-911 1141.9719,-917 1141.9719,-923 1141.9719,-923 1141.9719,-935 1141.9719,-935 1141.9719,-941 1135.9719,-947 1129.9719,-947"/>
<text text-anchor="middle" x="1103.4719" y="-931.8" font-family="Helvetica,sans-Serif" font-size="9.00" fill="#000000">Client remote</text>
<text text-anchor="middle" x="1103.4719" y="-921.8" font-family="Helvetica,sans-Serif" font-size="9.00" fill="#000000">seal task</text>
</g>
<!-- leg_blue -->
<g id="node20" class="node">
<title>leg_blue</title>
<path fill="#bbdefb" stroke="#1565c0" d="M1128.9719,-833C1128.9719,-833 1065.9719,-833 1065.9719,-833 1059.9719,-833 1053.9719,-827 1053.9719,-821 1053.9719,-821 1053.9719,-809 1053.9719,-809 1053.9719,-803 1059.9719,-797 1065.9719,-797 1065.9719,-797 1128.9719,-797 1128.9719,-797 1134.9719,-797 1140.9719,-803 1140.9719,-809 1140.9719,-809 1140.9719,-821 1140.9719,-821 1140.9719,-827 1134.9719,-833 1128.9719,-833"/>
<text text-anchor="middle" x="1097.4719" y="-817.8" font-family="Helvetica,sans-Serif" font-size="9.00" fill="#000000">Normal pipeline</text>
<text text-anchor="middle" x="1097.4719" y="-807.8" font-family="Helvetica,sans-Serif" font-size="9.00" fill="#000000">task (client)</text>
</g>
<!-- leg_green&#45;&gt;leg_blue -->
<!-- leg_pink -->
<g id="node21" class="node">
<title>leg_pink</title>
<path fill="#f8bbd0" stroke="#880e4f" d="M1121.9719,-737C1121.9719,-737 1048.9719,-737 1048.9719,-737 1042.9719,-737 1036.9719,-731 1036.9719,-725 1036.9719,-725 1036.9719,-713 1036.9719,-713 1036.9719,-707 1042.9719,-701 1048.9719,-701 1048.9719,-701 1121.9719,-701 1121.9719,-701 1127.9719,-701 1133.9719,-707 1133.9719,-713 1133.9719,-713 1133.9719,-725 1133.9719,-725 1133.9719,-731 1127.9719,-737 1121.9719,-737"/>
<text text-anchor="middle" x="1085.4719" y="-721.8" font-family="Helvetica,sans-Serif" font-size="9.00" fill="#000000">Provider compute</text>
<text text-anchor="middle" x="1085.4719" y="-711.8" font-family="Helvetica,sans-Serif" font-size="9.00" fill="#000000">task (UNION ALL)</text>
</g>
<!-- leg_blue&#45;&gt;leg_pink -->
<!-- leg_purple -->
<g id="node22" class="node">
<title>leg_purple</title>
<path fill="#e1bee7" stroke="#6a1b9a" d="M1112.4719,-645C1112.4719,-645 1044.4719,-645 1044.4719,-645 1038.4719,-645 1032.4719,-639 1032.4719,-633 1032.4719,-633 1032.4719,-621 1032.4719,-621 1032.4719,-615 1038.4719,-609 1044.4719,-609 1044.4719,-609 1112.4719,-609 1112.4719,-609 1118.4719,-609 1124.4719,-615 1124.4719,-621 1124.4719,-621 1124.4719,-633 1124.4719,-633 1124.4719,-639 1118.4719,-645 1112.4719,-645"/>
<text text-anchor="middle" x="1078.4719" y="-629.8" font-family="Helvetica,sans-Serif" font-size="9.00" fill="#000000">Provider lifecycle</text>
<text text-anchor="middle" x="1078.4719" y="-619.8" font-family="Helvetica,sans-Serif" font-size="9.00" fill="#000000">task</text>
</g>
<!-- leg_pink&#45;&gt;leg_purple -->
<!-- leg_diamond -->
<g id="node23" class="node">
<title>leg_diamond</title>
<polygon fill="#fff9c4" stroke="#f9a825" points="1074.4719,-525 1006.9327,-507 1074.4719,-489 1142.0111,-507 1074.4719,-525"/>
<text text-anchor="middle" x="1074.4719" y="-504.8" font-family="Helvetica,sans-Serif" font-size="9.00" fill="#000000">HTTP endpoint</text>
</g>
<!-- leg_purple&#45;&gt;leg_diamond -->
<!-- leg_arrow_bold -->
<g id="node24" class="node">
<title>leg_arrow_bold</title>
<text text-anchor="middle" x="1010.4719" y="-931.8" font-family="Helvetica,sans-Serif" font-size="9.00" fill="#000000">HTTP call</text>
<text text-anchor="middle" x="1010.4719" y="-921.8" font-family="Helvetica,sans-Serif" font-size="9.00" fill="#000000">(cross&#45;node)</text>
</g>
</g>
</svg>
